<?xml version="1.0" standalone="no"?>
<!DOCTYPE svg PUBLIC "-//W3C//DTD SVG 20010904//EN"
 "http://www.w3.org/TR/2001/REC-SVG-20010904/DTD/svg10.dtd">
<svg version="1.0" xmlns="http://www.w3.org/2000/svg"
 width="260.000000pt" height="260.000000pt" viewBox="0 0 260.000000 260.000000"
 preserveAspectRatio="xMidYMid meet">
<metadata>
Created by potrace 1.14, written by Peter Selinger 2001-2017
</metadata>
<g transform="translate(0.000000,260.000000) scale(0.100000,-0.100000)"
fill="#000000" stroke="none">
<path d="M1128 2595 c-2 -2 -19 -5 -38 -8 -90 -12 -300 -76 -325 -98 -5 -5
-17 -9 -26 -9 -10 0 -19 -3 -21 -7 -2 -5 -25 -19 -53 -33 -74 -37 -231 -158
-301 -231 -182 -191 -306 -434 -349 -684 -17 -96 -19 -331 -5 -420 16 -97 20
-114 49 -201 145 -444 473 -749 935 -872 93 -24 116 -26 301 -27 134 0 217 4
251 13 29 7 58 15 65 16 39 7 137 40 210 72 351 150 618 453 729 826 41 137
45 174 45 383 -1 201 -12 269 -72 435 -82 230 -251 455 -448 599 -38 28 -75
54 -80 58 -36 28 -226 116 -275 128 -3 1 -12 4 -20 8 -27 10 -84 26 -115 31
-16 3 -55 9 -85 15 -48 8 -364 14 -372 6z"/>
</g>
</svg>
